<svg xmlns="http://www.w3.org/2000/svg" width="400" height="400" viewBox="0 0 400 400">
  <defs>
    <linearGradient id="bg" x1="0%" y1="0%" x2="0%" y2="100%">
      <stop offset="0%" style="stop-color:#F8FAFC"/>
      <stop offset="100%" style="stop-color:#E6EDF6"/>
    </linearGradient>
  </defs>
  <rect width="400" height="400" fill="url(#bg)"/>
  <ellipse cx="200" cy="322" rx="120" ry="12" fill="rgba(37,99,235,0.10)"/>
  <g stroke-linecap="round" stroke-linejoin="round">
    <circle cx="118" cy="205" r="46" fill="#DBEAFE" stroke="#2563EB" stroke-width="3.5"/>
    <circle cx="118" cy="205" r="28" fill="#EFF6FF" stroke="#94A3B8" stroke-width="2.5"/>
    <circle cx="282" cy="205" r="46" fill="#DBEAFE" stroke="#2563EB" stroke-width="3.5"/>
    <circle cx="282" cy="205" r="28" fill="#EFF6FF" stroke="#94A3B8" stroke-width="2.5"/>
    <path d="M118 120 C118 152 118 152 118 152" fill="none" stroke="#1E40AF" stroke-width="6"/>
    <path d="M282 120 C282 152 282 152 282 152" fill="none" stroke="#1E40AF" stroke-width="6"/>
    <path d="M118 72 C118 96 118 96 118 96 L118 124" fill="none" stroke="#64748B" stroke-width="3"/>
    <path d="M282 72 C282 96 282 96 282 96 L282 124" fill="none" stroke="#64748B" stroke-width="3"/>
    <path d="M118 60 C118 20 118 20 118 20" fill="none" stroke="#38BDF8" stroke-width="4"/>
    <path d="M282 60 C282 20 282 20 282 20" fill="none" stroke="#38BDF8" stroke-width="4"/>
    <path d="M158 172 C158 205 158 205 158 205" fill="none" stroke="#94A3B8" stroke-width="3"/>
    <path d="M242 172 C242 205 242 205 242 205" fill="none" stroke="#94A3B8" stroke-width="3"/>
    <rect x="95" y="225" width="210" height="52" rx="14" fill="#F8FAFC" stroke="#2563EB" stroke-width="3.5"/>
    <line x1="115" y1="251" x2="285" y2="251" stroke="#38BDF8" stroke-width="6" stroke-linecap="round"/>
    <rect x="185" y="258" width="30" height="8" rx="4" fill="#E11D48"/>
  </g>
</svg>
